<svg width="121" height="121" viewBox="0 0 121 121" fill="none" xmlns="http://www.w3.org/2000/svg">
<circle cx="60.5" cy="60.5" r="60.5" fill="#41607C" fill-opacity="0.08"/>
<g clip-path="url(#clip0_2_707)">
<path d="M54.549 106C75.8039 106 93.098 88.5517 93.098 67.1074C93.1176 59.9461 91.1569 52.9035 87.4314 46.8104L89.0784 47.2259C89.549 47.3446 90.0392 47.2061 90.3725 46.8698L105.608 31.5185C105.98 31.1426 106.098 30.5689 105.922 30.0744C105.745 29.5798 105.294 29.2237 104.765 29.1644L93.2941 28.017L92.1569 16.4441C92.098 15.91 91.7451 15.455 91.2549 15.277C90.7647 15.0989 90.1961 15.2176 89.8235 15.5935L74.6078 30.9448C74.2745 31.2811 74.1373 31.7954 74.2549 32.2504L74.6667 33.9122C68.6078 30.1535 61.6471 28.1752 54.549 28.195C33.2941 28.2346 16 45.663 16 67.1074C16 88.5517 33.2941 106 54.549 106ZM89 44.3574L84.6078 43.2496L81.0392 42.3396L92.5686 30.7074L101.627 31.6174L89 44.3574ZM89.7255 19.6291L90.6274 28.7687L79.098 40.4009L78.2157 36.8004V36.7807L77.1176 32.3494L89.7255 19.6291ZM54.549 30.9844C62.1373 30.9646 69.549 33.3978 75.6667 37.928L76.8431 42.6759L53.5686 66.138C53.0392 66.6722 53.0392 67.5624 53.5686 68.0965C54.098 68.6307 54.9608 68.6307 55.5098 68.0965L78.7647 44.6344L83.4706 45.8213C87.9608 51.9935 90.3725 59.4515 90.3529 67.1272C90.3529 87.0483 74.2941 103.25 54.549 103.25C34.8039 103.23 18.7451 87.0285 18.7451 67.1074C18.7451 47.1863 34.8039 30.9844 54.549 30.9844Z" fill="#D6B764"/>
<path d="M54.549 94.1502C69.3333 94.1502 81.3529 82.0235 81.3529 67.1074C81.3725 61.41 79.5882 55.8511 76.2549 51.2417C75.8039 50.6285 74.9608 50.49 74.3333 50.9252C73.7255 51.3802 73.5882 52.2309 74.0392 52.8639C81.4117 63.1113 79.7059 77.3746 70.1568 85.5843C60.6078 93.7941 46.3921 93.2204 37.5294 84.2589C28.6666 75.2974 28.098 60.955 36.2549 51.3407C44.4117 41.7065 58.5294 40.025 68.6863 47.4633C69.2941 47.9183 70.1568 47.7798 70.6078 47.1665C71.0588 46.5533 70.9215 45.6828 70.3137 45.2278C65.7451 41.8648 60.2157 40.0448 54.549 40.0646C39.7647 40.0646 27.7451 52.1913 27.7451 67.1074C27.7451 82.0235 39.7647 94.1502 54.549 94.1502Z" fill="#D6B764"/>
<path d="M54.549 59.8076C50.549 59.8076 47.3137 63.0717 47.3137 67.1074C47.3137 71.143 50.549 74.4072 54.549 74.4072C58.549 74.4072 61.7843 71.143 61.7843 67.1074C61.7843 66.3359 61.1765 65.7226 60.4118 65.7226C59.6471 65.7226 59.0392 66.3359 59.0392 67.1074C59.0392 69.6198 57.0196 71.6376 54.5294 71.6376C52.0392 71.6376 50.0392 69.6 50.0392 67.1074C50.0392 64.595 52.0588 62.5772 54.5294 62.5772C55.2941 62.5772 55.902 61.9639 55.902 61.1924C55.9216 60.4209 55.2941 59.8076 54.549 59.8076Z" fill="#D6B764"/>
</g>
<defs>
<clipPath id="clip0_2_707">
<rect width="90" height="91" fill="white" transform="translate(16 15)"/>
</clipPath>
</defs>
</svg>
